<?xml version="1.0" ?><svg baseProfile="tiny" id="Layer_1" version="1.2" viewBox="0 0 512 512" xml:space="preserve" xmlns="http://www.w3.org/2000/svg" xmlns:xlink="http://www.w3.org/1999/xlink"><g><g><path d="M267.9,414h-23.8c-20.2,0-36.5-16.4-36.5-36.5v-52.9c0-20.2,16.4-36.5,36.5-36.5h23.8    c20.2,0,36.5,16.4,36.5,36.5v52.9C304.4,397.7,288.1,414,267.9,414z" fill="#EDBB98" id="XMLID_16_"/><path d="M304.4,376.6v0.9c0,20.2-16.4,36.5-36.5,36.5h-23.8c-20.2,0-36.5-16.4-36.5-36.5v-0.9    c-76.1,16.5-135.3,67.1-151.2,129c-0.2,0.9,100.8,0,199.6,0c98.8,0,199.8,0.9,199.6,0C439.7,443.7,380.5,393.1,304.4,376.6z" fill="#EDBB98" id="XMLID_15_"/><path d="M344.4,389c-8.2,21.6-25.8,25.6-89.4,49c-63.6-23.5-79.3-27.4-87.5-49    c-56.3,23.1-98.2,66.1-111.2,116.6c-0.2,0.9,100.8,0,199.6,0c98.8,0,199.8,0.9,199.6,0C442.6,455.1,400.8,412.1,344.4,389z" fill="#29ABE2" id="XMLID_14_"/></g><path d="M267.3,433.1" fill="#110102" id="XMLID_13_"/><path d="M259.1,436.8" fill="#110102" id="XMLID_12_"/><path d="M397.1,236.7C394.1,83,285.4,68.4,256.6,67.2l-0.1,0l-0.1,0c0,0-0.1,0-0.1,0   c0,0-0.1,0-0.1,0l-0.1,0l-0.1,0C227.2,68.4,118.5,83,115.5,236.7c0,0,110.5,101.1,138.8,36.7l-6,75.6l7.8-0.2l0.2,0l0.2,0l7.8,0.2   l29.4-91C322,322.3,397.1,236.7,397.1,236.7z" fill="#3F2820" id="XMLID_11_"/><path d="M397.1,236.7C394.1,83,285.4,68.4,256.6,67.2l-0.1,0l-0.1,0c0,0-0.1,0-0.1,0   c0,0-0.1,0-0.1,0l-0.1,0l-0.1,0C227.2,68.4,118.5,83,115.5,236.7c0,0,110.5,101.1,138.8,36.7l39.5-15.5   C322,322.3,397.1,236.7,397.1,236.7z" fill="#3F2820" id="XMLID_10_"/><path d="M359,140.3c3.3-2.5,6.1-5.8,8.3-10c12.5-23.5-2.6-56-33.7-72.6S267,46.5,254.5,70   c-2.3,4.3-3.5,8.6-3.7,12.8C280.1,78.7,346.1,113.9,359,140.3z" fill="#3F2820" id="XMLID_9_"/><path d="M325,67.2c1.7-3.7,2.7-8,2.7-12.8c0.1-26.6-28.4-48.3-63.8-48.4s-64,21.3-64.1,47.9   c0,4.9,0.9,9.2,2.7,13C226.4,49.6,289.1,90,325,67.2z" fill="#3F2820" id="XMLID_8_"/><path d="M267.2,70.1c-0.9-4-2.8-7.9-5.8-11.7c-16.3-21-52.1-20.5-80,1.2s-37.3,56.3-21,77.3   c3,3.8,6.4,6.7,10.2,8.6C178.8,117,237.8,71.1,267.2,70.1z" fill="#3F2820" id="XMLID_7_"/><ellipse cx="370.9" cy="239" fill="#F4C5A2" id="XMLID_6_" rx="25.9" ry="35.9" transform="matrix(0.9772 0.2124 -0.2124 0.9772 59.2277 -73.336)"/><ellipse cx="141.1" cy="239" fill="#F4C5A2" id="XMLID_5_" rx="25.9" ry="35.9" transform="matrix(-0.9772 0.2124 -0.2124 -0.9772 329.6862 442.5512)"/><ellipse cx="256.3" cy="234.4" fill="#F4C5A2" id="XMLID_4_" rx="111.5" ry="130.1"/><path d="M307.8,106.6c0,0-60.1,75.6-118.5,75.6c0,0-25.5,12-35,35c0,0-8.9-10.9-7.8-15.7   c0,0-12.9-64.8,95.8-109.2L307.8,106.6z" fill="#3F2820" id="XMLID_3_"/><path d="M304.4,101.4c0,0-2.6,49.8-44.8,79.6c0,0,13.9-18.7,14.3-39.6c0,0-15,36.7-44.5,52.2   c0,0,14-13,19-32.6c0,0-17.2,33.7-62.8,45.6c0,0,27-14.8,35.4-31c0,0-20,18-47.8,31c0,0-12.3,2.3-12.3,32.4c0,0,2.4,18.3,12.3,23.9   c0,0,23.2,15.6,20.9,30.3c0,0-13.4-25.4-28.8-27.2c0,0-16-11.7-16-40l11.1-40.7l108.4-93L304.4,101.4z" fill="#3F2820" id="XMLID_2_"/><path d="M370.9,193.4L319.5,92.2l-23.1,20.1c0,0,0.4,1.2,1.2,3.3l-3,0c0,0.5,0.1,0.9,0.1,1.3l0.1,1.2   c0.1,0.8,0.2,1.6,0.3,2.3c0.2,1.5,0.4,3.1,0.7,4.6c0.5,3,1.1,6,1.9,9c1.5,6,3.5,11.8,6.1,17.5c2.7,5.6,6.1,11,10.5,15.7   c2.2,2.3,4.7,4.4,7.3,6.2l2,1.3l1.7,1c1.1,0.7,2.2,1.4,3.3,2.2c2.1,1.5,3.9,3.3,5.4,5.3c1.6,2.1,2.9,4.4,4,6.8   c2.2,4.9,3.6,10.3,3.5,15.7c0,2.7-0.4,5.4-1.3,8c-0.9,2.7-1.9,5.5-2.4,8.5c-0.3,1.5-0.4,3-0.3,4.5c0.1,1.5,0.6,3,1.3,4.4   c1.5,2.7,4.1,4.4,6.8,5.4c-2.5-1.4-4.8-3.3-5.9-5.9c-0.5-1.3-0.8-2.6-0.7-4c0.1-1.4,0.3-2.7,0.7-4c0.8-2.7,2-5.2,3.2-7.8   c1.3-2.7,2.1-5.8,2.5-8.8c0.7-6.1-0.1-12.3-1.9-18.1c-1-2.9-2.2-5.8-3.8-8.5c-1.6-2.8-3.7-5.3-6-7.5c-1.2-1.1-2.3-2.1-3.6-3.1   c-0.6-0.5-1.2-0.9-1.8-1.4l-1.5-1.2c-1.9-1.7-3.6-3.5-5.2-5.6c-3.1-4.1-5.4-8.8-7.1-13.8c-0.1-0.4-0.2-0.7-0.3-1.1   c5.7,7.6,12.9,14.7,21.5,19.2c0.9,0.5,1.7,1.1,2.4,1.9c4.6,5.8,23.7,31,22.2,47.5C360.4,214.6,369,197.8,370.9,193.4z" fill="#3F2820" id="XMLID_1_"/></g></svg>