<?xml version="1.0" encoding="utf-8"?>
<svg version="1.1" xmlns="http://www.w3.org/2000/svg" xmlns:xlink="http://www.w3.org/1999/xlink" x="0px" y="0px" width="300px"
	 height="300px" viewBox="0 0 300 300" xml:space="preserve">
<g enable-background="new    ">
	<g>
		<g>
			
				<radialGradient id="SVGID_1_" cx="788.3145" cy="788.3203" r="419.1587" gradientTransform="matrix(0.3459 0 0 0.3459 -122.7026 -122.7043)" gradientUnits="userSpaceOnUse">
				<stop  offset="0" style="stop-color:#BA0D0A"/>
				<stop  offset="0.17" style="stop-color:#DC1E0A"/>
				<stop  offset="0.31" style="stop-color:#C70300"/>
				<stop  offset="0.49" style="stop-color:#A3201E"/>
				<stop  offset="0.73" style="stop-color:#A81310"/>
				<stop  offset="0.86" style="stop-color:#B90D0A"/>
				<stop  offset="1" style="stop-color:#AA0C0A"/>
			</radialGradient>
			<path fill-rule="evenodd" clip-rule="evenodd" fill="url(#SVGID_1_)" d="M139.8,150L5,94c0,0,14.1,28.1,14.1,56.1
				C19.1,178.1,5,206,5,206L139.8,150z M295,94l-134.8,56L295,206c0,0-14.1-27.9-14.1-55.9C280.9,122.1,295,94,295,94z M206,5
				c0,0-28.1,14.1-56.1,14.1C121.9,19.1,94,5,94,5l56,134.8L206,5z M94,295c0,0,27.9-14.1,55.9-14.1c28,0,56.1,14.1,56.1,14.1
				l-56-134.8L94,295z"/>
		</g>
		<g>
			<path fill="none" stroke="#870200" stroke-width="2.5" stroke-miterlimit="10" d="M139.8,150L5,94c0,0,14.1,28.1,14.1,56.1
				C19.1,178.1,5,206,5,206L139.8,150z M295,94l-134.8,56L295,206c0,0-14.1-27.9-14.1-55.9C280.9,122.1,295,94,295,94z M206,5
				c0,0-28.1,14.1-56.1,14.1C121.9,19.1,94,5,94,5l56,134.8L206,5z M94,295c0,0,27.9-14.1,55.9-14.1c28,0,56.1,14.1,56.1,14.1
				l-56-134.8L94,295z"/>
		</g>
	</g>
</g>
<g enable-background="new    ">
	<g>
		<g>
			
				<radialGradient id="SVGID_2_" cx="788.3145" cy="788.3203" r="410.9052" gradientTransform="matrix(0.3459 0 0 0.3459 -122.7026 -122.7043)" gradientUnits="userSpaceOnUse">
				<stop  offset="0" style="stop-color:#A8A8A8"/>
				<stop  offset="0.14" style="stop-color:#CDCDCD"/>
				<stop  offset="0.27" style="stop-color:#D2D2D2"/>
				<stop  offset="0.51" style="stop-color:#FFFFFF"/>
				<stop  offset="0.69" style="stop-color:#DDDDDD"/>
				<stop  offset="0.83" style="stop-color:#D8D8D8"/>
				<stop  offset="1" style="stop-color:#FFFFFF"/>
			</radialGradient>
			<path fill-rule="evenodd" clip-rule="evenodd" fill="url(#SVGID_2_)" d="M57.5,242.7c19.8,19.8,29.6,49.5,29.6,49.5l55.7-134.9
				L7.9,212.9C7.9,212.9,37.7,222.8,57.5,242.7z M242.7,57.5c-19.8-19.8-29.7-49.6-29.7-49.6l-55.7,134.9l134.9-55.7
				C292.1,87.1,262.4,77.3,242.7,57.5z M87.1,7.9c0,0-9.9,29.8-29.7,49.6C37.6,77.3,7.9,87.1,7.9,87.1l134.9,55.7L87.1,7.9z
				 M212.9,292.1c0,0,9.8-29.7,29.6-49.5c19.8-19.8,49.6-29.8,49.6-29.8l-134.9-55.7L212.9,292.1z"/>
		</g>
		<g>
			<path fill="none" stroke="#BDBDBD" stroke-width="2.5" stroke-miterlimit="10" d="M57.5,242.7c19.8,19.8,29.6,49.5,29.6,49.5
				l55.7-134.9L7.9,212.9C7.9,212.9,37.7,222.8,57.5,242.7z M242.7,57.5c-19.8-19.8-29.7-49.6-29.7-49.6l-55.7,134.9l134.9-55.7
				C292.1,87.1,262.4,77.3,242.7,57.5z M87.1,7.9c0,0-9.9,29.8-29.7,49.6C37.6,77.3,7.9,87.1,7.9,87.1l134.9,55.7L87.1,7.9z
				 M212.9,292.1c0,0,9.8-29.7,29.6-49.5c19.8-19.8,49.6-29.8,49.6-29.8l-134.9-55.7L212.9,292.1z"/>
		</g>
	</g>
</g>
</svg>
