<?xml version="1.0" encoding="UTF-8" standalone="no"?>
<svg
   xmlns:dc="http://purl.org/dc/elements/1.1/"
   xmlns:cc="http://creativecommons.org/ns#"
   xmlns:rdf="http://www.w3.org/1999/02/22-rdf-syntax-ns#"
   xmlns:svg="http://www.w3.org/2000/svg"
   xmlns="http://www.w3.org/2000/svg"
   xmlns:sodipodi="http://sodipodi.sourceforge.net/DTD/sodipodi-0.dtd"
   xmlns:inkscape="http://www.inkscape.org/namespaces/inkscape"
   version="1.1"
   x="0px"
   y="0px"
   width="95mm"
   height="35mm"
   viewBox="0 0 359.05505 132.28347"
   xml:space="preserve"
   id="svg191"
   sodipodi:docname="path.svg"
   inkscape:version="0.92.4 (unknown)"><metadata
   id="metadata197"><rdf:RDF><cc:Work
       rdf:about=""><dc:format>image/svg+xml</dc:format><dc:type
         rdf:resource="http://purl.org/dc/dcmitype/StillImage" /><dc:title></dc:title></cc:Work></rdf:RDF></metadata><defs
   id="defs195" /><sodipodi:namedview
   pagecolor="#ffffff"
   bordercolor="#666666"
   borderopacity="1"
   objecttolerance="10"
   gridtolerance="10"
   guidetolerance="10"
   inkscape:pageopacity="0"
   inkscape:pageshadow="2"
   inkscape:window-width="1916"
   inkscape:window-height="1032"
   id="namedview193"
   showgrid="false"
   units="mm"
   width="500mm"
   inkscape:zoom="2.82"
   inkscape:cx="234.65957"
   inkscape:cy="75.310144"
   inkscape:window-x="0"
   inkscape:window-y="22"
   inkscape:window-maximized="0"
   inkscape:current-layer="svg191"
   height="80mm" />
<g
   enable-background="new    "
   id="g162"
   transform="matrix(0.24082617,0,0,0.24082617,21.296263,26.983999)">
	<g
   id="g160">
		<g
   id="g154">
			
				<radialGradient
   id="SVGID_1_"
   cx="788.31451"
   cy="788.32031"
   r="419.15869"
   gradientTransform="matrix(0.3459,0,0,0.3459,-122.7026,-122.7043)"
   gradientUnits="userSpaceOnUse">
				<stop
   offset="0"
   style="stop-color:#BA0D0A"
   id="stop137" />
				<stop
   offset="0.17"
   style="stop-color:#DC1E0A"
   id="stop139" />
				<stop
   offset="0.31"
   style="stop-color:#C70300"
   id="stop141" />
				<stop
   offset="0.49"
   style="stop-color:#A3201E"
   id="stop143" />
				<stop
   offset="0.73"
   style="stop-color:#A81310"
   id="stop145" />
				<stop
   offset="0.86"
   style="stop-color:#B90D0A"
   id="stop147" />
				<stop
   offset="1"
   style="stop-color:#AA0C0A"
   id="stop149" />
			</radialGradient>
			<path
   d="M 139.8,150 5,94 c 0,0 14.1,28.1 14.1,56.1 C 19.1,178.1 5,206 5,206 Z M 295,94 160.2,150 295,206 c 0,0 -14.1,-27.9 -14.1,-55.9 C 280.9,122.1 295,94 295,94 Z M 206,5 C 206,5 177.9,19.1 149.9,19.1 121.9,19.1 94,5 94,5 l 56,134.8 z M 94,295 c 0,0 27.9,-14.1 55.9,-14.1 28,0 56.1,14.1 56.1,14.1 L 150,160.2 Z"
   id="path152"
   style="clip-rule:evenodd;fill:url(#SVGID_1_);fill-rule:evenodd"
   inkscape:connector-curvature="0" />
		</g>
		<g
   id="g158">
			<path
   stroke-miterlimit="10"
   d="M 139.8,150 5,94 c 0,0 14.1,28.1 14.1,56.1 C 19.1,178.1 5,206 5,206 Z M 295,94 160.2,150 295,206 c 0,0 -14.1,-27.9 -14.1,-55.9 C 280.9,122.1 295,94 295,94 Z M 206,5 C 206,5 177.9,19.1 149.9,19.1 121.9,19.1 94,5 94,5 l 56,134.8 z M 94,295 c 0,0 27.9,-14.1 55.9,-14.1 28,0 56.1,14.1 56.1,14.1 L 150,160.2 Z"
   id="path156"
   inkscape:connector-curvature="0"
   style="fill:none;stroke:#870200;stroke-width:2.5;stroke-miterlimit:10" />
		</g>
	</g>
</g>
<g
   enable-background="new    "
   id="g189"
   transform="matrix(0.24082617,0,0,0.24082617,21.296263,26.983999)">
	<g
   id="g187">
		<g
   id="g181">
			
				<radialGradient
   id="SVGID_2_"
   cx="788.31451"
   cy="788.32031"
   r="410.90521"
   gradientTransform="matrix(0.3459,0,0,0.3459,-122.7026,-122.7043)"
   gradientUnits="userSpaceOnUse">
				<stop
   offset="0"
   style="stop-color:#A8A8A8"
   id="stop164" />
				<stop
   offset="0.14"
   style="stop-color:#CDCDCD"
   id="stop166" />
				<stop
   offset="0.27"
   style="stop-color:#D2D2D2"
   id="stop168" />
				<stop
   offset="0.51"
   style="stop-color:#FFFFFF"
   id="stop170" />
				<stop
   offset="0.69"
   style="stop-color:#DDDDDD"
   id="stop172" />
				<stop
   offset="0.83"
   style="stop-color:#D8D8D8"
   id="stop174" />
				<stop
   offset="1"
   style="stop-color:#FFFFFF"
   id="stop176" />
			</radialGradient>
			<path
   d="m 57.5,242.7 c 19.8,19.8 29.6,49.5 29.6,49.5 L 142.8,157.3 7.9,212.9 c 0,0 29.8,9.9 49.6,29.8 z M 242.7,57.5 C 222.9,37.7 213,7.9 213,7.9 L 157.3,142.8 292.2,87.1 c -0.1,0 -29.8,-9.8 -49.5,-29.6 z M 87.1,7.9 c 0,0 -9.9,29.8 -29.7,49.6 C 37.6,77.3 7.9,87.1 7.9,87.1 l 134.9,55.7 z m 125.8,284.2 c 0,0 9.8,-29.7 29.6,-49.5 19.8,-19.8 49.6,-29.8 49.6,-29.8 L 157.2,157.1 Z"
   id="path179"
   style="clip-rule:evenodd;fill:url(#SVGID_2_);fill-rule:evenodd"
   inkscape:connector-curvature="0" />
		</g>
		<g
   id="g185">
			<path
   stroke-miterlimit="10"
   d="m 57.5,242.7 c 19.8,19.8 29.6,49.5 29.6,49.5 L 142.8,157.3 7.9,212.9 c 0,0 29.8,9.9 49.6,29.8 z M 242.7,57.5 C 222.9,37.7 213,7.9 213,7.9 L 157.3,142.8 292.2,87.1 c -0.1,0 -29.8,-9.8 -49.5,-29.6 z M 87.1,7.9 c 0,0 -9.9,29.8 -29.7,49.6 C 37.6,77.3 7.9,87.1 7.9,87.1 l 134.9,55.7 z m 125.8,284.2 c 0,0 9.8,-29.7 29.6,-49.5 19.8,-19.8 49.6,-29.8 49.6,-29.8 L 157.2,157.1 Z"
   id="path183"
   inkscape:connector-curvature="0"
   style="fill:none;stroke:#bdbdbd;stroke-width:2.5;stroke-miterlimit:10" />
		</g>
	</g>
</g>
<text
   xml:space="preserve"
   style="font-style:normal;font-variant:normal;font-weight:normal;font-stretch:normal;font-size:40px;line-height:1.25;font-family:Anson;-inkscape-font-specification:Anson;letter-spacing:0px;word-spacing:0px;fill:#000000;fill-opacity:1;stroke:none"
   x="100.00002"
   y="79.778954"
   id="text201"><tspan
     sodipodi:role="line"
     id="tspan199"
     x="100.00002"
     y="79.778954"
     style="font-size:53.33333588px">Project Alice</tspan></text>


</svg>