<svg xmlns="http://www.w3.org/2000/svg" baseProfile="tiny" viewBox="0 0 512 512"><path d="M268.7 413.6h-25.4c-21.6 0-39.1-17.5-39.1-39.1v-56.6c0-21.6 17.5-39.1 39.1-39.1h25.4c21.6 0 39.1 17.5 39.1 39.1v56.6c0 21.6-17.5 39.1-39.1 39.1z" fill="#edbb98"/><path d="M307.8 373.6v.9c0 21.6-17.5 39.1-39.1 39.1h-25.4c-21.6 0-39.1-17.5-39.1-39.1v-.9c-81.4 17.6-144.8 71.8-161.8 138-.2.9 107.8 0 213.6 0h213.6c-17-66.2-80.4-120.4-161.8-138z" fill="#2b00ff"/><g fill="#f4c5a2"><ellipse cx="385.4" cy="214.7" rx="28.7" ry="39.6" transform="matrix(.9772 .2124 -.2124 .9772 54.3952 -76.9704)"/><ellipse cx="131.6" cy="217.2" rx="28.7" ry="39.6" transform="matrix(-.9772 .2124 -.2124 -.9772 306.2907 401.5808)"/><ellipse cx="258.8" cy="212.2" rx="123.2" ry="143.7"/></g><path d="M258.8 96.6s27.1 53.8 89.7 58.5c0 0 17.9 37.9 8.3 57l21.7-34s19.1-5.1 29.9 8.4c0 0 25.8-115.8-55.2-161.4 0 0 14.3-9.5 16.3-9.5S347.8 17 340.3 21V0L326 17.7s-85.6-48.2-184.3 17.8c0 0-68.5 55.8-35.3 157.5 0 0 10.8-23.2 31.9-10.4 0 0 11.8 23.3 22.2 34.7 0 0-14.8-56 13.1-90 0 0 3.1 24.1 17.9 27.9 0 0-8.6-19.3 3.8-46.5 0 0 9.9 53.2 54.4 54 .2-.1-30.8-45.6 9.1-66.1z" fill="#3f2820"/><g fill="#1a1a1a"><path d="M310 236c-22.4 0-40.6-18.2-40.6-40.6s18.2-40.6 40.6-40.6 40.6 18.2 40.6 40.6S332.3 236 310 236zm0-75.5c-19.2 0-34.9 15.7-34.9 34.9s15.7 34.9 34.9 34.9 34.9-15.7 34.9-34.9-15.7-34.9-34.9-34.9zM206.4 236c-22.4 0-40.6-18.2-40.6-40.6s18.2-40.6 40.6-40.6S247 173 247 195.4 228.8 236 206.4 236zm0-75.5c-19.2 0-34.9 15.7-34.9 34.9s15.7 34.9 34.9 34.9 34.9-15.7 34.9-34.9-15.7-34.9-34.9-34.9z"/><path d="M251.5 189.8c-9.3 0-9.5-.6-10.1-2.2l1-3.2 3.5 4.5-1.7-2.2.1-.6c-.3-1.3 1.2-2 .6-2.1 1.9.3 17.7.1 28.4-.2l.1 5.7-21.9.3zm89.95-19.304l32.667 13.64-2.196 5.26-32.667-13.64zm-166.093-.696l2.305 5.213-35.304 15.606-2.305-5.213z"/></g></svg>