<svg xmlns="http://www.w3.org/2000/svg" xmlns:xlink="http://www.w3.org/1999/xlink" width="359.055" height="132.283"><g transform="matrix(.240826 0 0 .240826 21.296263 26.983999)"><radialGradient id="A" cx="788.315" cy="788.32" r="419.159" gradientTransform="matrix(0.3459,0,0,0.3459,-122.7026,-122.7043)" gradientUnits="userSpaceOnUse"><stop offset="0" stop-color="#ba0d0a"/><stop offset=".17" stop-color="#dc1e0a"/><stop offset=".31" stop-color="#c70300"/><stop offset=".49" stop-color="#a3201e"/><stop offset=".73" stop-color="#a81310"/><stop offset=".86" stop-color="#b90d0a"/><stop offset="1" stop-color="#aa0c0a"/></radialGradient><use xlink:href="#D" fill="url(#A)" fill-rule="evenodd"/><use xlink:href="#D" stroke-miterlimit="10" fill="none" stroke="#870200" stroke-width="2.5"/><radialGradient id="B" cx="788.315" cy="788.32" r="410.905" gradientTransform="matrix(0.3459,0,0,0.3459,-122.7026,-122.7043)" gradientUnits="userSpaceOnUse"><stop offset="0" stop-color="#a8a8a8"/><stop offset=".14" stop-color="#cdcdcd"/><stop offset=".27" stop-color="#d2d2d2"/><stop offset=".51" stop-color="#fff"/><stop offset=".69" stop-color="#ddd"/><stop offset=".83" stop-color="#d8d8d8"/><stop offset="1" stop-color="#fff"/></radialGradient><use xlink:href="#E" fill="url(#B)" fill-rule="evenodd"/><use xlink:href="#E" stroke-miterlimit="10" fill="none" stroke="#bdbdbd" stroke-width="2.5"/></g><path d="M101.6 79.78v-37.5h11.146q4.35 0 7.448 3.15 3.125 3.15 3.125 7.526v.573q0 4.35-3.125 7.474-3.1 3.1-7.448 3.1h-7.292V79.78zm3.854-19.53h7.292q2.76 0 4.74-1.98 2.005-1.98 2.005-4.74v-.573q0-2.786-2.005-4.74-1.98-1.98-4.74-1.98h-7.292zm21.848 19.53V54.597h2.9l.964 1.068q1.536-1.068 3.4-1.068h3.516v3.75l-3.516.104q-1.406 0-2.422 1-1 .964-1 2.37v17.97zm13.958-7.58V62.175q0-1.562.417-2.812.443-1.276 1.12-2.03.703-.78 1.536-1.354.833-.573 1.667-.833.86-.26 1.536-.417.703-.156 1.12-.156l.443-.026h2.656q1.484 0 2.708.417 1.224.417 1.98 1.094.755.677 1.328 1.5.6.807.86 1.615.286.807.443 1.484.182.677.208 1.094l.052.417V72.2q0 .156-.026.443-.026.26-.208 1.068-.182.78-.47 1.5-.26.703-.86 1.6-.573.885-1.328 1.536-.755.625-1.98 1.068-1.224.417-2.708.417h-2.656q-.156 0-.443-.026-.286 0-1.094-.156-.807-.156-1.562-.417-.73-.26-1.64-.833-.9-.573-1.562-1.328-.65-.78-1.094-2.03-.443-1.276-.443-2.84zm4.063 0q.026.156.052.417.052.26.286.938.26.65.625 1.172.365.495 1.094.9.755.417 1.72.417h2.656q.156 0 .4-.026.234-.052.833-.286.625-.234 1.094-.6.47-.4.833-1.146.4-.78.4-1.797V62.175q0-1.016-.365-1.77-.365-.78-.885-1.146-.52-.365-1.042-.6-.52-.234-.885-.286l-.365-.026h-2.656q-.703 0-1.302.208-.573.208-.964.547-.365.34-.65.755-.286.4-.443.807-.156.417-.26.755-.104.34-.13.547l-.026.208zm10.807 14.558l4.74-.104q1.406 0 2.37-1 1-.964 1-2.37v-28.75h3.828V82.33q0 3.073-2.16 5.625-2.135 2.552-5.026 2.552l-4.74-.104zm8.1-35.677v-3.828h3.828v3.828z"/><use xlink:href="#F"/><use xlink:href="#G"/><path d="M216.172 58.4v-3.906h2.448v-3.4l2.84-3.828h1.068v7.24h5.9V58.4h-5.9v14.115q0 1.406.964 2.448 1 1.016 2.396 1.042h2.552v3.672l-2.552.104q-1.927 0-3.646-1.198-1.693-1.224-2.656-3.1-.964-1.9-.964-3.906V58.4zm32.76 21.38l10.47-37.5h3.724l10.47 37.5h-4l-3.047-10.73h-10.6l-2.995 10.73zm8.073-14.4h8.516l-4.245-15.313zm21.12 14.4h3.828v-37.5h-3.828zm9.948 0h3.828V54.597h-3.828zm0-28.698h3.828v-3.828h-3.828z"/><use xlink:href="#G" x="102.605"/><use xlink:href="#F" x="146.146"/><defs ><path id="D" d="M139.8 150L5 94s14.1 28.1 14.1 56.1S5 206 5 206zM295 94l-134.8 56L295 206s-14.1-27.9-14.1-55.9S295 94 295 94zM206 5s-28.1 14.1-56.1 14.1S94 5 94 5l56 134.8zM94 295s27.9-14.1 55.9-14.1S206 295 206 295l-56-134.8z"/><path id="E" d="M57.5 242.7c19.8 19.8 29.6 49.5 29.6 49.5l55.7-134.9L7.9 212.9s29.8 9.9 49.6 29.8zM242.7 57.5C222.9 37.7 213 7.9 213 7.9l-55.7 134.9 134.9-55.7c-.1 0-29.8-9.8-49.5-29.6zM87.1 7.9s-9.9 29.8-29.7 49.6S7.9 87.1 7.9 87.1l134.9 55.7zm125.8 284.2s9.8-29.7 29.6-49.5 49.6-29.8 49.6-29.8l-134.9-55.7z"/><path id="F" d="M172.682 72.59v-9.818q0-3.073 2.135-5.625 2.16-2.552 5.052-2.552h3.542q2.995 0 5.104 2.135 2.135 2.11 2.135 5.078 0 2.995-2.11 5.104-2.11 2.083-5.13 2.083h-6.9v3.594q0 1.354 1 2.37 1.016 1 2.37 1h3.542q1.068 0 1.953-.6.885-.6 1.25-1.484l3.307 1.64q-.885 1.875-2.63 3.073-1.745 1.198-3.88 1.198h-3.542q-2.97 0-5.078-2.11-2.11-2.11-2.11-5.078zm3.828-7.422h6.9q1.406 0 2.396-.964 1.016-1 1.016-2.396 0-1.406-1.016-2.37-1-1-2.396-1h-3.542q-1.38 0-2.37 1-1 .964-1 2.37z"/><path id="G" d="M194.635 72.513V61.8q0-2.995 2.11-5.104 2.11-2.11 5.13-2.11h3.542q2.11 0 3.854 1.198 1.745 1.172 2.578 3.02l-3.307 1.72q-.365-.91-1.224-1.484-.86-.6-1.9-.6h-3.542q-1.406 0-2.422 1-1 .964-1 2.37v10.703q0 1.406 1 2.422 1.016 1.016 2.422 1.016h3.542q1.016 0 1.875-.6.885-.6 1.25-1.484l3.307 1.64q-.833 1.85-2.578 3.073-1.745 1.198-3.854 1.198h-3.542q-2.995 0-5.13-2.11-2.11-2.135-2.11-5.156z"/></defs></svg>