<svg xmlns="http://www.w3.org/2000/svg" baseProfile="tiny" viewBox="0 0 512 512"><g fill="#edbb98"><path d="M267.9 414h-23.8c-20.2 0-36.5-16.4-36.5-36.5v-52.9c0-20.2 16.4-36.5 36.5-36.5h23.8c20.2 0 36.5 16.4 36.5 36.5v52.9a36.45 36.45 0 0 1-36.5 36.5z"/><path d="M304.4 376.6v.9c0 20.2-16.4 36.5-36.5 36.5h-23.8c-20.2 0-36.5-16.4-36.5-36.5v-.9c-76.1 16.5-135.3 67.1-151.2 129-.2.9 100.8 0 199.6 0h199.6c-15.9-61.9-75.1-112.5-151.2-129z"/></g><path d="M344.4 389c-8.2 21.6-25.8 25.6-89.4 49-63.6-23.5-79.3-27.4-87.5-49-56.3 23.1-98.2 66.1-111.2 116.6-.2.9 100.8 0 199.6 0h199.6c-12.9-50.5-54.7-93.5-111.1-116.6z" fill="#29abe2"/><g fill="#3f2820"><path d="M397.1 236.7C394.1 83 285.4 68.4 256.6 67.2h-.6C227.2 68.4 118.5 83 115.5 236.7c0 0 110.5 101.1 138.8 36.7l-6 75.6 7.8-.2h.4l7.8.2 29.4-91c28.3 64.3 103.4-21.3 103.4-21.3z"/><path d="M397.1 236.7C394.1 83 285.4 68.4 256.6 67.2h-.6C227.2 68.4 118.5 83 115.5 236.7c0 0 110.5 101.1 138.8 36.7l39.5-15.5c28.2 64.4 103.3-21.2 103.3-21.2z"/><path d="M359 140.3c3.3-2.5 6.1-5.8 8.3-10 12.5-23.5-2.6-56-33.7-72.6S267 46.5 254.5 70c-2.3 4.3-3.5 8.6-3.7 12.8 29.3-4.1 95.3 31.1 108.2 57.5z"/><path d="M325 67.2c1.7-3.7 2.7-8 2.7-12.8.1-26.6-28.4-48.3-63.8-48.4s-64 21.3-64.1 47.9c0 4.9.9 9.2 2.7 13 23.9-17.3 86.6 23.1 122.5.3z"/><path d="M267.2 70.1c-.9-4-2.8-7.9-5.8-11.7-16.3-21-52.1-20.5-80 1.2s-37.3 56.3-21 77.3c3 3.8 6.4 6.7 10.2 8.6 8.2-28.5 67.2-74.4 96.6-75.4z"/></g><g fill="#f4c5a2"><ellipse cx="370.9" cy="239" rx="25.9" ry="35.9" transform="matrix(.9772 .2124 -.2124 .9772 59.2277 -73.336)"/><ellipse cx="141.1" cy="239" rx="25.9" ry="35.9" transform="matrix(-.9772 .2124 -.2124 -.9772 329.6862 442.5512)"/><ellipse cx="256.3" cy="234.4" rx="111.5" ry="130.1"/></g><g fill="#3f2820"><path d="M307.8 106.6s-60.1 75.6-118.5 75.6c0 0-25.5 12-35 35 0 0-8.9-10.9-7.8-15.7 0 0-12.9-64.8 95.8-109.2l65.5 14.3z"/><path d="M304.4 101.4s-2.6 49.8-44.8 79.6c0 0 13.9-18.7 14.3-39.6 0 0-15 36.7-44.5 52.2 0 0 14-13 19-32.6 0 0-17.2 33.7-62.8 45.6 0 0 27-14.8 35.4-31 0 0-20 18-47.8 31 0 0-12.3 2.3-12.3 32.4 0 0 2.4 18.3 12.3 23.9 0 0 23.2 15.6 20.9 30.3 0 0-13.4-25.4-28.8-27.2 0 0-16-11.7-16-40l11.1-40.7 108.4-93 35.6 9.1z"/><path d="M370.9 193.4L319.5 92.2l-23.1 20.1 1.2 3.3h-3c0 .5.1.9.1 1.3l.1 1.2.3 2.3.7 4.6 1.9 9c1.5 6 3.5 11.8 6.1 17.5 2.7 5.6 6.1 11 10.5 15.7 2.2 2.3 4.7 4.4 7.3 6.2l2 1.3 1.7 1c1.1.7 2.2 1.4 3.3 2.2a24.7 24.7 0 0 1 5.4 5.3c1.6 2.1 2.9 4.4 4 6.8 2.2 4.9 3.6 10.3 3.5 15.7 0 2.7-.4 5.4-1.3 8-.9 2.7-1.9 5.5-2.4 8.5a17.06 17.06 0 0 0-.3 4.5c.1 1.5.6 3 1.3 4.4 1.5 2.7 4.1 4.4 6.8 5.4-2.5-1.4-4.8-3.3-5.9-5.9-.5-1.3-.8-2.6-.7-4s.3-2.7.7-4c.8-2.7 2-5.2 3.2-7.8 1.3-2.7 2.1-5.8 2.5-8.8.7-6.1-.1-12.3-1.9-18.1-1-2.9-2.2-5.8-3.8-8.5-1.6-2.8-3.7-5.3-6-7.5-1.2-1.1-2.3-2.1-3.6-3.1-.6-.5-1.2-.9-1.8-1.4l-1.5-1.2c-1.9-1.7-3.6-3.5-5.2-5.6-3.1-4.1-5.4-8.8-7.1-13.8-.1-.4-.2-.7-.3-1.1 5.7 7.6 12.9 14.7 21.5 19.2.9.5 1.7 1.1 2.4 1.9 4.6 5.8 23.7 31 22.2 47.5.1.3 8.7-16.5 10.6-20.9z"/></g></svg>