<svg xmlns="http://www.w3.org/2000/svg" xmlns:xlink="http://www.w3.org/1999/xlink" width="300" height="300"><radialGradient id="A" cx="788.315" cy="788.32" r="419.159" gradientTransform="matrix(0.3459 0 0 0.3459 -122.7026 -122.7043)" gradientUnits="userSpaceOnUse"><stop offset="0" stop-color="#ba0d0a"/><stop offset=".17" stop-color="#dc1e0a"/><stop offset=".31" stop-color="#c70300"/><stop offset=".49" stop-color="#a3201e"/><stop offset=".73" stop-color="#a81310"/><stop offset=".86" stop-color="#b90d0a"/><stop offset="1" stop-color="#aa0c0a"/></radialGradient><use xlink:href="#D" fill-rule="evenodd" fill="url(#A)"/><use xlink:href="#D" fill="none" stroke="#870200" stroke-width="2.5" stroke-miterlimit="10"/><radialGradient id="B" cx="788.315" cy="788.32" r="410.905" gradientTransform="matrix(0.3459 0 0 0.3459 -122.7026 -122.7043)" gradientUnits="userSpaceOnUse"><stop offset="0" stop-color="#a8a8a8"/><stop offset=".14" stop-color="#cdcdcd"/><stop offset=".27" stop-color="#d2d2d2"/><stop offset=".51" stop-color="#fff"/><stop offset=".69" stop-color="#ddd"/><stop offset=".83" stop-color="#d8d8d8"/><stop offset="1" stop-color="#fff"/></radialGradient><use xlink:href="#E" fill-rule="evenodd" fill="url(#B)"/><use xlink:href="#E" fill="none" stroke="#bdbdbd" stroke-width="2.5" stroke-miterlimit="10"/><defs ><path id="D" d="M139.8 150L5 94s14.1 28.1 14.1 56.1S5 206 5 206l134.8-56zM295 94l-134.8 56L295 206s-14.1-27.9-14.1-55.9S295 94 295 94zM206 5s-28.1 14.1-56.1 14.1S94 5 94 5l56 134.8L206 5zM94 295s27.9-14.1 55.9-14.1S206 295 206 295l-56-134.8L94 295z"/><path id="E" d="M57.5 242.7c19.8 19.8 29.6 49.5 29.6 49.5l55.7-134.9L7.9 212.9s29.8 9.9 49.6 29.8zM242.7 57.5C222.9 37.7 213 7.9 213 7.9l-55.7 134.9 134.9-55.7c-.1 0-29.8-9.8-49.5-29.6zM87.1 7.9s-9.9 29.8-29.7 49.6S7.9 87.1 7.9 87.1l134.9 55.7L87.1 7.9zm125.8 284.2s9.8-29.7 29.6-49.5 49.6-29.8 49.6-29.8l-134.9-55.7 55.7 135z"/></defs></svg>