<svg id="Layer_1" data-name="Layer 1" xmlns="http://www.w3.org/2000/svg" viewBox="0 0 1878.26 669.4"><defs><style>.cls-1{fill:#0e1233;}.cls-2{fill:#27e0fb;}.cls-3{fill:#44c5cf;}.cls-4{fill:#5b71f9;}.cls-5{fill:#8ee127;}.cls-6{fill:#5767f8;}.cls-7{fill:#2ea4ca;}.cls-8{fill:#36db9e;}.cls-9{fill:#3bb8a8;}.cls-10{fill:#1eb8c6;}.cls-11{fill:#4763f4;}.cls-12{fill:#edeef2;}</style></defs><rect class="cls-1" width="1878.26" height="669.4"/><rect class="cls-2" x="200" y="303.14" width="369.4" height="63.12" rx="31.56"/><rect class="cls-3" x="200" y="303.14" width="369.4" height="63.12" rx="31.56" transform="translate(50 719.4) rotate(-90)"/><rect class="cls-4" x="200" y="303.14" width="369.4" height="63.12" rx="31.56" transform="translate(-123.99 370.06) rotate(-45)"/><rect class="cls-5" x="200" y="303.14" width="369.4" height="63.12" rx="31.56" transform="translate(420.06 843.39) rotate(-135)"/><polygon class="cls-6" points="353.14 347.77 340.07 334.7 308.51 366.26 353.14 366.26 353.14 347.77"/><polygon class="cls-6" points="416.26 321.63 429.33 334.7 460.89 303.14 416.26 303.14 416.26 321.63"/><polygon class="cls-7" points="397.77 303.14 416.26 303.14 416.26 258.51 384.7 290.07 397.77 303.14"/><polygon class="cls-7" points="371.63 366.26 353.14 366.26 353.14 410.89 384.7 379.33 371.63 366.26"/><polygon class="cls-7" points="416.26 303.14 397.77 303.14 416.26 321.63 416.26 303.14"/><polygon class="cls-7" points="353.14 366.26 371.63 366.26 353.14 347.77 353.14 366.26"/><polygon class="cls-8" points="353.14 321.63 353.14 303.14 308.51 303.14 340.07 334.7 353.14 321.63"/><polygon class="cls-8" points="416.26 347.77 416.26 366.26 460.89 366.26 429.33 334.7 416.26 347.77"/><polygon class="cls-9" points="371.63 303.14 384.7 290.07 353.14 258.51 353.14 303.14 371.63 303.14"/><polygon class="cls-9" points="397.77 366.26 384.7 379.33 416.26 410.89 416.26 366.26 397.77 366.26"/><polygon class="cls-10" points="353.14 303.14 353.14 321.63 371.63 303.14 353.14 303.14"/><polygon class="cls-10" points="416.26 366.26 416.26 347.77 397.77 366.26 416.26 366.26"/><polygon class="cls-11" points="340.07 334.7 353.14 347.77 353.14 321.63 340.07 334.7"/><polygon class="cls-11" points="416.26 347.77 429.33 334.7 416.26 321.63 416.26 347.77"/><polygon class="cls-7" points="384.7 379.33 397.77 366.26 371.63 366.26 384.7 379.33"/><polygon class="cls-7" points="384.7 290.07 371.63 303.14 397.77 303.14 384.7 290.07"/><polygon class="cls-7" points="397.77 303.14 371.63 303.14 353.14 321.63 353.14 347.77 371.63 366.26 397.77 366.26 416.26 347.77 416.26 321.63 397.77 303.14"/><path class="cls-12" d="M1084.1,261.18c-38.37,0-65.16,26.58-65.16,64.64v68A14.2,14.2,0,0,0,1033.49,408,14.36,14.36,0,0,0,1048,393.86V325.29c0-23.06,14.16-38,36.07-38,22.41,0,36.34,14.54,36.34,38v68.57A14.2,14.2,0,0,0,1135,408a14.37,14.37,0,0,0,14.55-14.14v-68C1149.54,287.76,1122.63,261.18,1084.1,261.18Z"/><path class="cls-12" d="M1255.44,261.42c-18.23,0-31,6.59-38.83,12.58V210.81c0-7.64-6.52-13.85-14.53-13.85s-14.52,6.09-14.52,13.85V393.88A14.17,14.17,0,0,0,1202.08,408a14.34,14.34,0,0,0,14.53-14.12V325.42c0-27.95,18.6-37.9,36-37.9,22.39,0,36.3,14.52,36.3,37.9v68.46A14.17,14.17,0,0,0,1303.43,408,14.34,14.34,0,0,0,1318,393.88V326C1318,288,1292.25,261.42,1255.44,261.42Z"/><path class="cls-12" d="M1472,261.34c-8.14,0-14.52,6.08-14.52,13.85v68.75c0,23.38-13.91,37.91-36.3,37.91-21.88,0-36-14.88-36-37.91V275.19c0-7.64-6.51-13.85-14.53-13.85s-14.52,6.08-14.52,13.85v67.95c0,38.17,26.76,64.82,65.07,64.82,38.48,0,65.35-26.65,65.35-64.82V275.19C1486.56,267.55,1480.05,261.34,1472,261.34Z"/><path class="cls-12" d="M820.27,380.38l-86.16,0,95.39-95.35a12.84,12.84,0,0,0,4.16-9.4c0-7.35-6.26-13.32-13.95-13.32l-112,0c-7.7,0-14,6-14,13.31s6.38,13.32,14,13.32H789.2l-95.3,94.8-.11.12c-1.51,1.65-4.32,4.73-4.32,9.53,0,7.49,6.39,13.58,14.25,13.58H820.27c7.69,0,14-6,14-13.31S828.1,380.38,820.27,380.38Z"/><path class="cls-12" d="M1601.9,261c-18.62,0-36,6.05-49.57,17.19v-67.8c0-7.64-6.51-13.85-14.52-13.85s-14.53,6.08-14.53,13.85V330.84c0,.92,0,1.84,0,2.77v.21h0c.56,18.94,10.1,39.86,24.41,53l.2.18q1.61,1.58,3.31,3l1.91,1.76v-.17c13.32,10.67,30.37,16.48,48.78,16.48,42.82,0,76.36-32.32,76.36-73.57S1644.72,261,1601.9,261Zm48.61,73.57c0,26.61-21.28,47.46-48.44,47.46-26.39,0-47.1-19.55-48.16-45.34v-4.11c1.06-25.92,21.77-45.47,48.16-45.47C1629.23,287.1,1650.51,307.94,1650.51,334.56Z"/><path class="cls-12" d="M973.69,362.32c-4.88,0-8,2.82-11,5.54l-.21.21a43.92,43.92,0,0,1-33.7,15.21,44.92,44.92,0,0,1-26.64-8.57l75.7-75.83c2.9-3.2,4.2-6.25,4.2-9.9a14,14,0,0,0-4.91-10.34c-12.34-11.39-30-17.92-48.35-17.92-41.32,0-73.69,32.48-73.69,73.95s32.37,74,73.69,74c21.64,0,41.5-8.88,54.47-24.31,2.37-2.71,3.9-6.26,3.9-9.06C987.17,367.88,981.37,362.32,973.69,362.32ZM887,356.06a51.29,51.29,0,0,1-4.61-21.39c0-27.25,20.41-48.6,46.46-48.6a39.58,39.58,0,0,1,21.66,6.16Z"/></svg>